<?xml version="1.0" encoding="UTF-8" standalone="no"?>
<!-- Created with Inkscape (http://www.inkscape.org/) -->

<svg
   xmlns:dc="http://purl.org/dc/elements/1.1/"
   xmlns:cc="http://creativecommons.org/ns#"
   xmlns:rdf="http://www.w3.org/1999/02/22-rdf-syntax-ns#"
   xmlns:svg="http://www.w3.org/2000/svg"
   xmlns="http://www.w3.org/2000/svg"
   xmlns:sodipodi="http://sodipodi.sourceforge.net/DTD/sodipodi-0.dtd"
   xmlns:inkscape="http://www.inkscape.org/namespaces/inkscape"
   version="1.1"
   id="svg2"
   width="406.66666"
   height="261.33334"
   viewBox="0 0 406.66666 261.33334"
   sodipodi:docname="LOGOJAY1.svg"
   inkscape:version="0.92.4 (unknown)">
  <metadata
     id="metadata8">
    <rdf:RDF>
      <cc:Work
         rdf:about="">
        <dc:format>image/svg+xml</dc:format>
        <dc:type
           rdf:resource="http://purl.org/dc/dcmitype/StillImage" />
        <dc:title />
      </cc:Work>
    </rdf:RDF>
  </metadata>
  <defs
     id="defs6" />
  <sodipodi:namedview
     pagecolor="#ffffff"
     bordercolor="#666666"
     borderopacity="1"
     objecttolerance="10"
     gridtolerance="10"
     guidetolerance="10"
     inkscape:pageopacity="0"
     inkscape:pageshadow="2"
     inkscape:window-width="1366"
     inkscape:window-height="702"
     id="namedview4"
     showgrid="false"
     inkscape:snap-others="false"
     inkscape:object-nodes="false"
     inkscape:zoom="0.90306119"
     inkscape:cx="831.03093"
     inkscape:cy="115.16384"
     inkscape:window-x="0"
     inkscape:window-y="0"
     inkscape:window-maximized="1"
     inkscape:current-layer="svg2" />
  <rect
     style="opacity:1;fill:#ececec;fill-opacity:1;fill-rule:evenodd;stroke:none;stroke-width:2.01653838;stroke-linecap:square;stroke-linejoin:miter;stroke-miterlimit:4;stroke-dasharray:none;stroke-dashoffset:0;stroke-opacity:1;paint-order:normal"
     id="rect1597-6"
     width="404.18082"
     height="258.01132"
     x="0.55364579"
     y="0.55367082"
     ry="0"
     inkscape:export-xdpi="96"
     inkscape:export-ydpi="96" />
  <path
     style="fill:#000000;stroke-width:1.33333337"
     d="M 6.717502,128.02238 V 9.3557123 H 200.05084 393.38417 V 128.02238 246.68905 H 200.05084 6.717502 Z m 384.451978,0 -0.45197,-116.000008 H 200.05084 9.384172 V 128.02238 244.02239 H 200.05084 390.71751 Z m -173.51864,78.40001 c -0.94889,-0.9489 -1.6,-5.51651 -1.6,-11.22428 0,-10.35425 0.77512,-13.84239 3.07599,-13.84239 0.97499,0 0.92777,0.52957 -0.14265,1.6 -1.66091,1.6609 -2.25166,17.81705 -0.79068,21.62428 1.12353,2.92788 5.47862,2.64137 7.14377,-0.46996 0.75913,-1.41845 1.38024,-6.19508 1.38024,-10.61472 0,-6.59019 -0.53967,-8.55438 -3,-10.91887 l -3,-2.88316 2.98425,1.53637 c 1.64135,0.845 3.36188,3.04091 3.82342,4.8798 1.38141,5.504 -0.0664,16.65806 -2.18791,18.00058 -2.65656,1.68114 -5.79567,4.20311 -7.68643,2.31235 z m 25.31863,-11.4 c -0.13857,-7.51667 0.27807,-13.66667 0.92587,-13.66667 1.29748,0 3.08288,5.51706 2.10262,6.49733 -0.33758,0.33757 -0.72717,-0.23623 -0.86574,-1.27511 -0.13858,-1.03889 -0.6252,3.51111 -1.08138,10.11111 l -0.82941,12 z m 28.01471,11.4 c -0.88,-0.88 -1.54019,-2.83 -1.4671,-4.33334 0.11134,-2.28974 0.28339,-2.19237 1.06011,0.6 0.66719,2.39855 1.84515,3.33334 4.20043,3.33334 2.61437,0 3.36134,-0.77114 3.71098,-3.831 0.34831,-3.04824 -0.53709,-4.63456 -4.33333,-7.76375 -2.62411,-2.163 -4.77109,-5.03998 -4.77109,-6.39328 0,-3.61356 1.41168,-6.67864 3.07598,-6.67864 0.97499,0 0.92778,0.52957 -0.14265,1.6 -2.79681,2.79681 -1.74035,6.5033 3.06667,10.75911 6.47768,5.7349 6.07824,14.30756 -0.66667,14.30756 -1.17333,0 -2.85333,-0.72 -3.73333,-1.6 z m 25.307,-12.06667 c 0.13213,-7.51667 0.46354,-10.8535 0.73637,-7.41518 0.44519,5.61039 0.86493,6.30778 4.093,6.80023 l 3.59696,0.54874 -3.66667,0.19977 c -3.41901,0.18628 -3.66666,0.59932 -3.66666,6.11529 0,5.67472 0.1764,5.93742 4.33333,6.45328 4.26642,0.52947 4.25613,0.54107 -0.66667,0.75115 l -5,0.21339 z m 26.69299,12.06667 c -0.98632,-0.98632 -1.6,-5.82662 -1.6,-12.61976 0,-10.10825 0.24815,-11.14001 3,-12.47355 2.74811,-1.33174 2.79936,-1.2919 0.6104,0.47456 -2.01692,1.6276 -2.32884,3.66654 -2,13.07355 0.38044,10.88329 0.46763,11.1452 3.70984,11.1452 2.61019,0 3.50316,-0.85542 4.17558,-4 0.79393,-3.71278 0.86668,-3.75586 1.0131,-0.6 0.17774,3.83069 -1.9939,6.6 -5.17558,6.6 -1.17334,0 -2.85334,-0.72 -3.73334,-1.6 z m -130.44635,-12.4 c 0.004,-7.33334 -0.27019,-3.87458 0,0 0.2702,3.87459 -6.9e-4,0 0.49056,7.04469 0,0 -0.49472,0.28864 -0.49125,-7.04469 z m 56.97802,4.43518 c -1.5289,-4.52732 -2.54512,-8.46619 -2.25825,-8.75304 0.28685,-0.28687 1.63269,2.66731 2.99075,6.56482 l 2.46917,7.08637 0.7516,-11.33333 0.75159,-11.33334 0.24841,13 c 0.13661,7.15 -0.29652,13 -0.96253,13 -0.666,0 -2.46184,-3.70416 -3.99074,-8.23148 z m 109.30693,5.89815 c -0.0879,-2.5052 -0.85662,-3 -4.66082,-3 -2.50555,0 -4.85819,0.75 -5.22807,1.66667 -1.18025,2.92497 -0.66527,-3.53046 0.55843,-7 1.17313,-3.3262 1.17468,-3.32548 0.71865,0.33333 -0.40533,3.25217 -0.0257,3.66667 3.35811,3.66667 2.0983,0 3.8151,-0.55423 3.8151,-1.23162 0,-3.73157 -3.26701,-14.55473 -4.2163,-13.96804 -0.61436,0.37971 -1.11703,-0.29504 -1.11703,-1.49944 0,-1.20439 0.71975,-1.94988 1.59944,-1.65665 1.71845,0.57282 6.87347,21.83608 5.87713,24.24183 -0.32966,0.79598 -0.64674,0.0972 -0.70464,-1.55275 z m -163.02193,-9.24415 c 0.9625,-0.38516 2.1125,-0.3378 2.55556,0.1052 0.44306,0.44306 -0.34445,0.75819 -1.75,0.7003 -1.55326,-0.064 -1.8692,-0.37992 -0.80556,-0.80555 z m 155.12719,-5.75585 c 0,-1.83334 0.30264,-2.58334 0.67252,-1.66667 0.36988,0.91667 0.36988,2.41667 0,3.33333 -0.36988,0.91667 -0.67252,0.16667 -0.67252,-1.66666 z m -20.21052,-2.17778 c 0,-1.44222 -0.72,-3.34222 -1.6,-4.22222 -1.21576,-1.21576 -1.22187,-1.6 -0.0255,-1.6 1.73812,0 3.76705,6.3028 2.4522,7.61765 -0.45468,0.45473 -0.82673,-0.35321 -0.82673,-1.79543 z m -52,-2.00857 c 0,-0.83581 -1.05,-2.36892 -2.33333,-3.40688 -2.10574,-1.70313 -2.04071,-1.74541 0.66666,-0.43341 2.55258,1.23697 4.34742,5.35997 2.33334,5.35997 -0.36667,0 -0.66667,-0.68385 -0.66667,-1.51968 z M 64.639012,166.06478 c -1.4235,-1.07666 -1.95285,-1.97666 -1.17635,-2 0.77651,-0.0233 2.57651,0.83852 4,1.9152 1.4235,1.07667 1.95285,1.97667 1.17635,2 -0.77651,0.0233 -2.57651,-0.83852 -4,-1.9152 z m 8.17583,-0.0711 c -1.41314,-1.06911 -2.24813,-2.26503 -1.85555,-2.6576 0.39258,-0.39259 2.14878,0.48125 3.90266,1.94186 3.6462,3.0365 1.85038,3.66436 -2.04711,0.71574 z m 52.235998,-0.0673 c -2.01666,-1.09402 -3.66666,-2.27 -3.66666,-2.61325 0,-1.28791 2.10734,-0.48083 5.33333,2.04259 3.96249,3.0995 3.36915,3.30268 -1.66667,0.5707 z m 7,-0.5707 c -1.83333,-1.43406 -2.73333,-2.60738 -2,-2.60738 0.73334,0 2.83334,1.17332 4.66667,2.60738 1.83333,1.43405 2.73333,2.60737 2,2.60737 -0.73333,0 -2.83333,-1.17332 -4.66667,-2.60737 z m 8,0 c -4.3613,-3.41147 -1.81781,-3.41147 3.33334,0 2.2,1.457 3.1,2.6397 2,2.62822 -1.1,-0.012 -3.5,-1.19417 -5.33334,-2.62822 z m 8,0 c -4.3613,-3.41147 -1.81781,-3.41147 3.33334,0 2.2,1.457 3.1,2.6397 2,2.62822 -1.1,-0.012 -3.5,-1.19417 -5.33334,-2.62822 z m 8.18563,-0.0444 c -4.08091,-3.39974 -2.0086,-3.37052 3.14771,0.0444 2.2,1.457 3.1,2.63309 2,2.61352 -1.1,-0.0196 -3.41647,-1.21562 -5.14771,-2.65788 z m 27.81437,-0.0747 c -2.21401,-1.81096 -2.43788,-2.26372 -0.66666,-1.34833 4.34902,2.24763 6.76009,4.09395 5.33333,4.08407 -0.73333,-0.005 -2.83333,-1.23616 -4.66667,-2.73574 z m 8,0.11914 c -4.3613,-3.41147 -1.81781,-3.41147 3.33334,0 2.2,1.457 3.1,2.6397 2,2.62822 -1.1,-0.012 -3.5,-1.19417 -5.33334,-2.62822 z m 8,0 c -4.3613,-3.41147 -1.81781,-3.41147 3.33334,0 2.2,1.457 3.1,2.6397 2,2.62822 -1.1,-0.012 -3.5,-1.19417 -5.33334,-2.62822 z m 9.14771,0.0444 c -4.09617,-3.41251 -1.50509,-3.4528 2.85229,-0.0444 1.83334,1.43405 2.6498,2.6207 1.81438,2.63701 -0.83542,0.0163 -2.93542,-1.15039 -4.66667,-2.59265 z m 8.85229,-0.0444 c -2.2,-1.457 -3.4,-2.6491 -2.66666,-2.6491 0.73333,0 3.13333,1.1921 5.33333,2.6491 2.2,1.457 3.4,2.64909 2.66667,2.64909 -0.73334,0 -3.13334,-1.19209 -5.33334,-2.64909 z m 8.66667,0 c -4.36131,-3.41147 -1.81781,-3.41147 3.33333,0 2.2,1.457 3.1,2.6397 2,2.62822 -1.1,-0.012 -3.5,-1.19417 -5.33333,-2.62822 z m 9.51896,-0.0444 c -4.08091,-3.39974 -2.0086,-3.37052 3.14771,0.0444 2.2,1.457 3.1,2.63309 2,2.61352 -1.1,-0.0196 -3.41647,-1.21562 -5.14771,-2.65788 z m 29.14771,0.0444 c -4.36131,-3.41147 -1.81782,-3.41147 3.33333,0 2.2,1.457 3.1,2.6397 2,2.62822 -1.1,-0.012 -3.5,-1.19417 -5.33333,-2.62822 z m 10.66666,0 c -4.3613,-3.41147 -1.81781,-3.41147 3.33334,0 2.2,1.457 3.1,2.6397 2,2.62822 -1.1,-0.012 -3.5,-1.19417 -5.33334,-2.62822 z m 10.66667,0 c -4.36131,-3.41147 -1.81781,-3.41147 3.33333,0 2.2,1.457 3.1,2.6397 2,2.62822 -1.1,-0.012 -3.5,-1.19417 -5.33333,-2.62822 z m 9.33333,0 c -4.3613,-3.41147 -1.81781,-3.41147 3.33334,0 2.2,1.457 3.09999,2.6397 2,2.62822 -1.1,-0.012 -3.5,-1.19417 -5.33334,-2.62822 z m 8,0 c -4.3613,-3.41147 -1.81781,-3.41147 3.33333,0 2.2,1.457 3.1,2.6397 2,2.62822 -1.1,-0.012 -3.5,-1.19417 -5.33333,-2.62822 z m 8.18563,-0.0444 c -4.14066,-3.44951 -0.93887,-3.40835 3.45054,0.0444 1.8903,1.4869 2.57322,2.64704 1.54364,2.6223 -1.01556,-0.0244 -3.26294,-1.2244 -4.99418,-2.66666 z m 8.48104,0.0444 c -2.2,-1.457 -3.19464,-2.65306 -2.21031,-2.65788 0.98433,-0.005 3.31525,1.19121 5.17981,2.65788 4.3794,3.44484 2.23203,3.44484 -2.9695,0 z m 31.31341,-0.0616 c -1.82237,-1.4002 -2.71341,-2.54008 -1.98008,-2.53307 1.76408,0.0169 6.63675,3.73564 5.88275,4.48964 -0.3241,0.32409 -2.0803,-0.55636 -3.90267,-1.95657 z M 78.717502,164.02238 c -1.83333,-1.43405 -2.73333,-2.60737 -2,-2.60737 0.73333,0 2.83333,1.17332 4.66667,2.60737 1.83333,1.43406 2.73333,2.60738 2,2.60738 -0.73334,0 -2.83334,-1.17332 -4.66667,-2.60738 z m 6.33333,-1.01097 c -3.97727,-2.46592 -5.15523,-5.23439 -1.33333,-3.13364 3.96962,2.18195 7.73536,5.39279 6.33333,5.40007 -0.73333,0.004 -2.98333,-1.01608 -5,-2.26643 z m 76.188888,-0.24467 c -1.75388,-1.4606 -2.58888,-2.65652 -1.85554,-2.6576 1.91106,-0.003 6.60841,3.74928 5.75821,4.59947 -0.39257,0.39259 -2.14877,-0.48125 -3.90267,-1.94187 z m 78.45396,-0.79242 c -2.73689,-1.85978 -4.97617,-3.99031 -4.97617,-4.73452 0,-1.12252 6.22135,2.76621 11.26667,7.04236 2.99562,2.53893 -1.68486,0.82177 -6.2905,-2.30784 z m 116.02383,1.03709 c -4.05403,-2.51351 -5.10623,-5.18661 -1.22368,-3.10873 2.25381,1.2062 6.522,5.49865 5.38693,5.41756 -0.27312,-0.0195 -2.14659,-1.05848 -4.16325,-2.30883 z m -33.66667,-2.36369 c -2.2,-1.80331 -3.28345,-3.28174 -2.40768,-3.28538 0.87577,-0.004 3.27577,1.47442 5.33333,3.28458 4.86555,4.28052 2.29635,4.28122 -2.92565,8e-4 z m -277.709078,0.56326 c -12.31088,-2.93764 -19.38893,-16.25701 -14.31795,-26.94332 2.06013,-4.3414 8.57016,-8.91194 12.69369,-8.91194 3.85704,0 10.54773,4.49389 12.03442,8.0831 1.53072,3.69547 1.39761,5.99119 -0.74895,12.9169 -0.81581,2.63214 -0.46116,2.99749 2.89236,2.97958 9.42224,-0.0503 9.82217,-1.94608 9.82217,-46.5586 V 64.022372 h -6 -6 v -7.33333 -7.33333 h 25.33333 25.333348 v 6.66666 6.66667 h -4.59051 -4.590519 l -0.40949,37.666678 c -0.392439,36.09786 -0.534409,37.9004 -3.408679,43.27861 -6.46966,12.10577 -16.26864,17.73089 -32.17119,18.46793 -5.58963,0.25907 -12.73204,-0.14201 -15.87203,-0.89128 z m 44.37574,-1.81393 c -2.2,-1.80332 -3.4,-3.29736 -2.66667,-3.32009 0.73334,-0.0227 3.13334,1.43412 5.33334,3.23742 2.2,1.80332 3.4,3.29736 2.66666,3.3201 -0.73333,0.0227 -3.13333,-1.43412 -5.33333,-3.23743 z m 30.000008,-5.37467 v -7.33333 l 4.33333,-0.008 4.33334,-0.008 17.43178,-48.325784 17.43179,-48.324894 12.77341,-0.38007 12.77343,-0.38007 2.11587,5.71341 c 1.16372,3.14237 8.63084,24.9134 16.59357,48.380078 l 14.47772,42.66666 5.53455,0.41 5.53454,0.41 v 7.25667 7.25667 h -27.33333 -27.33333 v -7.16667 c 0,-6.90873 0.14509,-7.19568 4.03146,-7.97296 5.11523,-1.02304 6.11567,-3.673 3.74154,-9.91045 l -1.88407,-4.94992 -15.81321,-0.012 -15.8132,-0.012 -1.79792,4.30305 c -2.67342,6.39836 -2.22548,8.45895 2.20206,10.13016 3.74886,1.41504 4,1.95191 4,8.55085 v 7.04102 h -18.66666 -18.66667 v -7.33334 z m 61.02416,-39 C 175.02384,97.272396 168.6763,77.545962 167.93824,78.340572 c -0.51857,0.55833 -3.43121,8.81514 -6.47252,18.348474 -3.04132,9.533334 -5.785,18.083334 -6.09709,19.000004 -0.42791,1.25688 2.57489,1.66667 12.21291,1.66667 11.5191,0 12.71912,-0.23027 12.16013,-2.33334 z m -19.65221,-0.28125 c -1.07876,-0.68223 -1.63496,-1.56684 -1.236,-1.96581 0.39896,-0.39896 1.88158,0.14933 3.29472,1.21844 2.81116,2.12677 1.10298,2.74689 -2.05872,0.74737 z m 3.29472,-4.67742 c -2.2,-1.80332 -3.4,-3.29736 -2.66667,-3.32009 0.73333,-0.0227 3.13333,1.43412 5.33333,3.23743 2.2,1.80332 3.4,3.29736 2.66667,3.32009 -0.73333,0.0227 -3.13333,-1.43411 -5.33333,-3.23743 z m 1.33333,-5.33333 c -2.2,-1.80332 -3.28345,-3.30034 -2.40768,-3.32671 0.87577,-0.0264 3.27577,1.43308 5.33333,3.24324 4.87168,4.28592 2.29104,4.35954 -2.92565,0.0835 z m 2.61456,-3.98082 c -2.17135,-1.735155 -3.64789,-3.454814 -3.28123,-3.821484 0.36667,-0.36667 2.44322,0.753 4.61456,2.488149 2.17135,1.735145 3.6479,3.454815 3.28123,3.821485 -0.36667,0.36666 -2.44321,-0.753 -4.61456,-2.48815 z m 0.57432,-5.912404 c -1.75388,-1.421885 -2.88888,-2.885234 -2.52221,-3.251904 0.36666,-0.36666 2.10166,0.49669 3.85554,1.918569 1.7539,1.421885 2.8889,2.885235 2.52223,3.251905 -0.36667,0.36666 -2.10167,-0.49669 -3.85556,-1.91857 z m -0.52221,-6.814784 c -0.45323,-0.73333 -0.22404,-1.33333 0.50929,-1.33333 0.73333,0 1.70415,0.6 2.15737,1.33333 0.45323,0.73334 0.22404,1.33334 -0.50929,1.33334 -0.73333,0 -1.70415,-0.6 -2.15737,-1.33334 z m 95.66666,72.290548 c -2.6411,-0.41906 -3,-1.26246 -3,-7.04994 v -6.57393 h 6.66667 6.66667 V 130.32502 113.96099 L 259.05084,89.325012 c -13.58321,-23.34667 -14.56012,-24.65784 -18.66666,-25.05378 -4.30628,-0.4152 -4.33334,-0.46307 -4.33334,-7.66667 v -7.24885 h 26.66667 26.66667 v 7.33333 7.33333 h -4.66667 c -3.39068,0 -4.66667,0.58385 -4.66667,2.1353 0,1.17441 3.3969,8.52441 7.54866,16.33333 8.68698,16.339134 8.19118,15.569314 9.30801,14.452484 0.47117,-0.47116 0.0212,-1.8835 -1,-3.138535 -1.62099,-1.992209 -1.58129,-2.178839 0.31268,-1.470329 1.67519,0.62668 3.73925,-2.09825 9.06125,-11.96246 3.79056,-7.02569 6.58319,-13.57855 6.20584,-14.56189 -0.37735,-0.98334 -2.53627,-1.7879 -4.7976,-1.7879 h -4.11153 l 0.40301,-7 0.40301,-7 17.66667,-0.37203 17.66667,-0.37203 v 7.37203 c 0,7.23236 -0.0727,7.37203 -3.83631,7.37203 -3.60057,0 -4.66567,1.51332 -17.33333,24.62773 l -13.49703,24.627718 v 16.70562 16.70561 h 6.73635 6.73634 l -0.40301,6.98261 -0.40301,6.98262 -25.33333,0.0673 c -13.93334,0.0371 -26.68334,-0.14688 -28.33334,-0.40868 z m 75.09524,-1.05244 c -5.02347,-5.02347 -0.39093,-12.25819 7.23809,-11.30387 2.55947,0.32017 5.33334,3.90471 5.33334,6.89204 0,3.28068 -3.63608,6.50707 -7.33334,6.50707 -1.72857,0 -4.08572,-0.94286 -5.23809,-2.09524 z M 93.717502,157.20232 c -2.38333,-1.52632 -4.33333,-3.32474 -4.33333,-3.99646 0,-0.67172 2.4,0.36694 5.33333,2.30812 2.933344,1.94119 5.333338,3.7497 5.333338,4.01892 0,1.11236 -2.250244,0.2843 -6.333338,-2.33058 z M 160.6654,156.678 c -2.17134,-1.77451 -3.34789,-3.23462 -2.61456,-3.24468 1.87859,-0.0257 8.10766,4.92586 7.26131,5.7722 -0.38437,0.38437 -2.4754,-0.75302 -4.64675,-2.52752 z m 79.05211,-0.2495 c -2.75,-1.88846 -5,-3.98122 -5,-4.65057 0,-0.66935 2.7,0.64067 6,2.91112 3.3,2.27045 6,4.39928 6,4.73072 0,1.25456 -2.16347,0.33007 -7,-2.99127 z m 115.53998,0.7332 c -2.52234,-2.84081 -2.51966,-2.85002 0.38576,-1.32616 3.24098,1.69986 5.23658,4.18684 3.35959,4.18684 -0.66295,0 -2.34836,-1.2873 -3.74535,-2.86068 z m -32.62345,-2.4461 c -2.52076,-2.155 -3.9832,-3.92098 -3.24987,-3.92442 1.86148,-0.009 9.38424,6.2914 8.5311,7.14456 -0.38392,0.38392 -2.76048,-1.06514 -5.28123,-3.22014 z M 97.050836,153.68177 c -2.750004,-1.84444 -5.000004,-3.94355 -5.000004,-4.66471 0,-1.03908 4.286429,1.62791 10.555568,6.56758 0.30556,0.24076 0.30556,0.66564 0,0.94418 -0.30556,0.27855 -2.805564,-1.00262 -5.555564,-2.84705 z m 2.66667,-3.91993 c -2.75,-1.88847 -5.000004,-3.96092 -5.000004,-4.60544 0,-0.64452 2.400004,0.4164 5.333338,2.35758 2.93334,1.94119 5.33334,4.0497 5.33334,4.68559 0,1.49513 0.16168,1.56469 -5.666674,-2.43773 z m 221.496584,-1.40612 c -1.65849,-2.11475 -1.61133,-2.16191 0.50342,-0.50342 1.28333,1.00647 2.33333,2.05647 2.33333,2.33334 0,1.09738 -1.09492,0.39108 -2.83675,-1.82992 z m -220.29076,-3.7852 c -2.793934,-1.89852 -4.788269,-3.74347 -4.431859,-4.09988 0.622685,-0.62268 11.559369,6.05914 11.559369,7.06226 0,1.23322 -2.45432,0.21314 -7.12751,-2.96238 z m 121.79418,-0.62683 c 0,-0.77661 0.6,-1.0412 1.33333,-0.58797 0.73334,0.45322 1.33334,1.08864 1.33334,1.41202 0,0.32339 -0.6,0.58798 -1.33334,0.58798 -0.73333,0 -1.33333,-0.63542 -1.33333,-1.41203 z m 84,-0.58797 c -0.92591,-1.11566 -1.0703,-2 -0.32652,-2 0.73333,0 2.08026,0.9 2.99318,2 0.92591,1.11565 1.0703,2 0.32652,2 -0.73333,0 -2.08026,-0.9 -2.99318,-2 z m 4.07602,-2.0982 c -3.11157,-2.25402 -5.32925,-4.42635 -4.9282,-4.8274 0.68743,-0.68743 11.51884,7.18398 11.51884,8.37097 0,1.05261 -0.95352,0.53993 -6.59064,-3.54357 z m -208.35959,-1.0032 c -2.722634,-1.9609 -4.972634,-4.04919 -5.000004,-4.64066 -0.0655,-1.41621 7.541124,3.09402 10.246344,6.07539 3.07879,3.39309 0.46411,2.67804 -5.24634,-1.43473 z m 50.76461,1.14576 c -1.73124,-1.44227 -2.46417,-2.64227 -1.62875,-2.66667 0.83542,-0.0244 2.93542,1.13568 4.66667,2.57795 1.73124,1.44226 2.46417,2.64226 1.62875,2.66666 -0.83542,0.0244 -2.93542,-1.13568 -4.66667,-2.57794 z m 70.18563,-2.00303 c -2.2,-1.80332 -3.4,-3.29736 -2.66667,-3.32009 0.73333,-0.0227 3.13333,1.43412 5.33333,3.23742 2.2,1.80332 3.4,3.29736 2.66667,3.3201 -0.73333,0.0227 -3.13333,-1.43412 -5.33333,-3.23743 z m -119.66667,-4.30188 c -2.75,-1.88847 -5.000004,-3.96092 -5.000004,-4.60544 0,-0.64452 2.400004,0.4164 5.333334,2.35759 2.93334,1.94118 5.33334,4.04969 5.33334,4.68558 0,1.49514 0.16168,1.5647 -5.66667,-2.43773 z m 50.33333,0.92721 c -1.32732,-1.46666 -1.96494,-2.66666 -1.41696,-2.66666 0.548,0 2.52191,1.2 4.38647,2.66666 2.18144,1.71592 2.68663,2.66667 1.41696,2.66667 -1.08524,0 -3.05915,-1.2 -4.38647,-2.66667 z m 156.20581,-0.7852 c -2.79392,-1.89852 -4.78825,-3.74346 -4.43185,-4.09988 0.62269,-0.62268 11.55937,6.05915 11.55937,7.06227 0,1.23321 -2.45432,0.21313 -7.12752,-2.96239 z m -149.46065,0.0761 c -2.07193,-1.56714 -2.17098,-1.9576 -0.49658,-1.9576 1.15036,0 2.8385,0.9 3.75142,2 2.11178,2.54453 0.13134,2.51873 -3.25484,-0.0424 z m 8.58818,0.0424 c -2.29362,-1.31115 -2.65646,-1.92024 -1.16326,-1.95275 1.19354,-0.026 2.917,0.85275 3.82992,1.95275 2.03003,2.44604 1.61223,2.44604 -2.66666,0 z m 8.58817,0.0424 c -1.42349,-1.07667 -1.91164,-1.97667 -1.08476,-2 0.82687,-0.0233 2.25033,0.8576 3.16325,1.9576 2.10772,2.53965 1.2464,2.55722 -2.07849,0.0424 z m 42.74516,-4.00107 c -2.2,-1.80332 -3.4,-3.29736 -2.66667,-3.32009 0.73334,-0.0227 3.13334,1.43412 5.33334,3.23742 2.2,1.80332 3.4,3.29736 2.66666,3.3201 -0.73333,0.0227 -3.13333,-1.43412 -5.33333,-3.23743 z m -116.32374,-1.72912 c -6.450044,-4.15656 -7.805639,-7.05052 -1.58681,-3.38759 3.68176,2.16858 9.13089,7.10694 7.78387,7.05426 -0.29699,-0.012 -3.08567,-1.66162 -6.19706,-3.66667 z m 205.9904,0.0939 c -2.75,-1.88847 -5,-3.98123 -5,-4.65057 0,-0.66935 2.7,0.64065 6,2.91111 3.3,2.27046 6,4.39928 6,4.73072 0,1.25456 -2.16346,0.33007 -7,-2.99126 z m -205.99999,-5.87195 c -3.11667,-2.20748 -5.666674,-4.56836 -5.666674,-5.24641 0,-0.67804 2.700004,0.67034 6.000004,2.99639 3.3,2.32606 6,4.71369 6,5.30586 0,1.45232 0.0991,1.50013 -6.33333,-3.05584 z m 114.68414,0.9687 c -4.04926,-2.661 -5.61385,-4.89676 -3.35081,-4.78825 1.53259,0.0735 8.97929,6.42436 8.28123,7.06257 -0.33802,0.30903 -2.5567,-0.71442 -4.93042,-2.27432 z m 91.99212,-0.52398 c -6.45005,-4.15656 -7.80564,-7.05053 -1.58681,-3.3876 3.68176,2.16859 9.13088,7.10695 7.78386,7.05426 -0.297,-0.0116 -3.08566,-1.66161 -6.19705,-3.66666 z M 103.71751,117.7618 c -2.75,-1.88847 -5.000004,-3.98123 -5.000004,-4.65057 0,-0.66935 2.700004,0.64065 6.000004,2.91111 3.3,2.27046 6,4.39929 6,4.73072 0,1.25457 -2.16347,0.33006 -7,-2.99126 z m 206.53914,0.14201 c -2.79392,-1.89852 -4.78825,-3.74347 -4.43185,-4.09988 0.62269,-0.62268 11.55937,6.05914 11.55937,7.06226 0,1.23322 -2.45432,0.21314 -7.12752,-2.96238 z m -93.87247,-0.70153 c -2.38334,-1.52633 -4.33334,-3.32174 -4.33334,-3.9898 0,-0.66806 2.09258,0.14086 4.65016,1.79761 2.55759,1.65674 4.65759,3.46225 4.66667,4.01225 0.0225,1.36259 -0.062,1.33172 -4.98349,-1.82006 z m -112.24445,-5.26883 c -3.11864,-2.25913 -5.353864,-4.42391 -4.967144,-4.81063 0.38671,-0.38671 2.992524,0.98321 5.790684,3.04427 2.79817,2.06106 5.33757,3.92166 5.64313,4.13465 0.30556,0.213 0.25136,0.69146 -0.12043,1.06325 -0.37179,0.37179 -3.22759,-1.1724 -6.34624,-3.43154 z m 207.24444,0.79689 c -2.2,-1.80332 -3.4,-3.27876 -2.66666,-3.27876 0.73333,0 3.13333,1.47544 5.33333,3.27876 2.2,1.80332 3.4,3.27876 2.66667,3.27876 -0.73334,0 -3.13334,-1.47544 -5.33334,-3.27876 z m -98.61455,-4.03028 c -2.17135,-1.7745 -3.66751,-3.50676 -3.32482,-3.84946 0.34271,-0.3427 2.71926,1.11461 5.28123,3.23846 2.56199,2.12385 4.05815,3.85611 3.32481,3.84946 -0.73333,-0.007 -3.10988,-1.46395 -5.28122,-3.23846 z m 101.02223,-0.11401 -3.74101,-3.43629 4.33333,2.39043 c 2.38334,1.31474 4.33334,2.86107 4.33334,3.4363 0,1.70888 -0.98122,1.23269 -4.92566,-2.39044 z m -210.09018,-2.77666 c -2.74129,-1.95045 -4.984164,-4.08773 -4.984164,-4.74951 0,-0.66178 2.700004,0.73576 6.000004,3.10564 3.3,2.36988 6,4.50716 6,4.74952 0,1.20974 -2.51612,0.096 -7.01584,-3.10565 z m 212.62661,-0.6425 c -2.41408,-1.54579 -4.10561,-3.09415 -3.75899,-3.44078 0.83838,-0.83837 8.81488,3.91266 8.81488,5.25038 0,1.41338 -0.0511,1.39509 -5.05589,-1.8096 z m -105.61929,-3.99928 c -2.56199,-2.190585 -3.45815,-3.388394 -1.99148,-2.661784 4.19052,2.076054 8.06151,5.232794 7.32271,5.971584 -0.3702,0.3702 -2.76926,-1.11921 -5.33123,-3.3098 z m -106.94172,-0.91334 c -2.72263,-1.960894 -4.972634,-4.049184 -5.000004,-4.640644 -0.0655,-1.416225 7.541134,3.094 10.246344,6.075384 3.07879,3.39309 0.46411,2.67804 -5.24634,-1.43474 z m 214.28357,0.39341 c -2.2,-1.803324 -3.49257,-3.281744 -2.87239,-3.285384 1.8007,-0.0105 8.87239,4.464194 8.87239,5.614194 0,1.79174 -1.84819,1.0744 -6,-2.32881 z m 2.66667,-3.917344 c -2.2,-1.80332 -3.4,-3.297365 -2.66667,-3.320095 0.73333,-0.0227 3.13333,1.434125 5.33333,3.237435 2.2,1.80332 3.4,3.297359 2.66667,3.320089 -0.73333,0.0227 -3.13333,-1.434119 -5.33333,-3.237429 z m -216.42145,-2.23488 c -3.16514,-2.241064 -5.470194,-4.359254 -5.122354,-4.707104 0.864154,-0.86414 11.543804,6.300614 11.543804,7.744504 0,1.543429 0.14528,1.612139 -6.42145,-3.0374 z m 103.67132,-1.232564 c -2.52076,-2.22063 -3.3832,-3.41832 -1.91654,-2.66154 4.08228,2.10639 7.88111,5.317654 7.15252,6.046234 -0.35904,0.35905 -2.71524,-1.16407 -5.23598,-3.384694 z m 115.41679,-0.53256 c -2.2,-1.80332 -3.4,-3.29736 -2.66666,-3.32009 0.73333,-0.0227 3.13333,1.43412 5.33333,3.23743 2.2,1.803319 3.4,3.297364 2.66667,3.320094 -0.73334,0.0227 -3.13334,-1.43411 -5.33334,-3.237434 z m -219.66666,-4.30187 c -2.75,-1.88847 -5.000004,-3.98123 -5.000004,-4.65058 0,-0.66934 2.700004,0.64066 6.000004,2.91112 3.3,2.27046 6,4.39928 6,4.73072 0,1.25456 -2.16347,0.33006 -7,-2.99126 z m 221.70429,0.19516 c -2.54597,-1.79738 -3.74597,-3.26497 -2.66667,-3.26133 1.07931,0.004 3.76238,1.48207 5.96238,3.28538 5.17617,4.24286 2.72298,4.22495 -3.29571,-0.0241 z m -31.31885,-1.32846 c -2.17135,-1.73515 -3.64789,-3.45482 -3.28123,-3.82148 0.36667,-0.36667 2.44322,0.753 4.61456,2.48814 2.17135,1.73515 3.6479,3.45482 3.28123,3.82148 -0.36667,0.36667 -2.44321,-0.753 -4.61456,-2.48814 z m -89.33333,-1.26173 c -2.17135,-1.77451 -3.63378,-3.54049 -3.24987,-3.92441 0.38392,-0.38392 2.76048,1.06514 5.28123,3.22014 5.48453,4.68873 3.63062,5.33147 -2.03136,0.70427 z m 123.61882,-1.01106 c -4.48176,-3.13299 -6.05815,-6.08361 -2.00427,-3.75151 4.13404,2.37822 9.04132,6.69131 7.6479,6.72187 -0.74367,0.0163 -3.2833,-1.32036 -5.64363,-2.97036 z m -223.99467,-2.02112 c -3.11139,-2.00505 -5.661384,-4.11665 -5.666664,-4.69246 -0.0124,-1.35718 3.619334,0.7123 8.657074,4.93305 5.24046,4.39059 4.04716,4.29458 -2.99041,-0.24059 z m 226.65707,-1.79894 c -2.38333,-1.52633 -4.33333,-3.32473 -4.33333,-3.99646 0,-0.67172 2.4,0.36693 5.33333,2.30812 2.93333,1.94119 5.33333,3.7497 5.33333,4.01892 0,1.11236 -2.25024,0.2843 -6.33333,-2.33058 z m -128.34185,-2.57999 c -2.56199,-2.12385 -4.05815,-3.87471 -3.32481,-3.89079 1.82892,-0.0401 9.49652,6.21993 8.65814,7.06874 -0.37136,0.37598 -2.77136,-1.0541 -5.33333,-3.17795 z m -98.48037,-1.44439 c -3.09885,-2.27892 -5.322894,-4.45488 -4.942324,-4.83546 0.54762,-0.54761 5.260004,2.46718 11.320104,7.24216 0.30556,0.24076 0.26327,0.73003 -0.094,1.08727 -0.35724,0.35724 -3.18496,-1.21505 -6.28381,-3.49397 z m 185.1052,0.11264 c -2.53898,-2.23583 -3.4096,-3.4914 -1.93472,-2.79017 2.52557,1.2008 8.41602,6.85531 7.14136,6.85531 -0.3247,0 -2.66768,-1.82932 -5.20664,-4.06514 z m 43.5895,-0.72006 c -2.79392,-1.89852 -4.78825,-3.74347 -4.43185,-4.09988 0.62269,-0.62269 11.55937,6.05914 11.55937,7.06226 0,1.23322 -2.45432,0.21314 -7.12752,-2.96238 z m 1.79419,-4.54814 c -6.08414,-5.12144 -3.5417,-5.09231 3.23752,0.0371 2.88064,2.1796 4.38064,3.94677 3.33333,3.92704 -1.04731,-0.0197 -4.00419,-1.80358 -6.57085,-3.96413 z m -231,-0.92721 c -2.75,-1.88847 -5.000004,-3.98968 -5.000004,-4.66936 0,-0.67969 2.700004,0.70321 6.000004,3.07309 3.3,2.36988 6,4.50716 6,4.74951 0,1.09118 -2.38133,0.0185 -7,-3.15324 z m 96.24987,-0.4989 c -2.52076,-2.22062 -3.3832,-3.45215 -1.91654,-2.73673 4.30403,2.09947 8.0554,5.21856 7.24776,6.02619 -0.41141,0.41142 -2.81048,-1.06883 -5.33122,-3.28946 z m 139.62261,-0.69242 c -2.79392,-1.89852 -4.79028,-3.74145 -4.43634,-4.09539 0.81312,-0.81312 10.19176,5.19865 10.21402,6.54726 0.0237,1.43943 -0.17566,1.35481 -5.77768,-2.45187 z m -54.96772,-1.11956 c -1.41197,-1.03247 -2.26724,-2.17721 -1.90057,-2.54388 0.36666,-0.36666 1.82193,0.17808 3.2339,1.21055 1.41199,1.03246 2.26724,2.1772 1.90058,2.54387 -0.36667,0.36667 -1.82192,-0.17808 -3.23391,-1.21054 z m -177.90476,-1.42857 c -2.11177,-2.54453 -0.13128,-2.51873 3.25484,0.0424 2.07194,1.56714 2.17099,1.9576 0.49659,1.9576 -1.15036,0 -2.83851,-0.9 -3.75143,-2 z m 4.66667,-2.7787 c -4.72662,-4.19992 -4.86828,-4.4848 -1.24526,-2.50423 6.54895,3.58006 10.8684,7.22221 8.57859,7.23344 -1.1,0.005 -4.4,-2.12275 -7.33333,-4.72921 z m 180.70528,3.49744 c -1.07876,-0.68223 -1.63496,-1.56684 -1.236,-1.9658 0.39896,-0.39897 1.88158,0.14933 3.29472,1.21843 2.81116,2.12678 1.10298,2.7469 -2.05872,0.74737 z m 50.62805,-1.38541 c -1.83334,-1.43405 -2.6498,-2.62071 -1.81438,-2.63702 0.83542,-0.0163 2.93542,1.15039 4.66667,2.59266 4.09617,3.41246 1.50509,3.45276 -2.85229,0.0444 z m -145,-2.82006 c -2.38333,-1.52633 -4.33333,-3.35708 -4.33333,-4.06833 0,-1.34318 7.32424,3.38297 8.70504,5.61714 1.11032,1.79654 0.53218,1.59172 -4.37171,-1.54881 z m 96.28123,-0.52433 c -2.17135,-1.77451 -3.3479,-3.23461 -2.61456,-3.24468 1.87858,-0.0258 8.10765,4.92586 7.2613,5.77221 -0.38437,0.38437 -2.4754,-0.75302 -4.64674,-2.52753 z m -181.00217,-2.86405 c -3.51318,-2.63677 -6.09969,-5.08204 -5.74778,-5.43395 0.83803,-0.83803 12.80205,7.76137 12.80205,9.20175 0,1.54127 0.0674,1.57727 -7.05427,-3.7678 z m 231.07419,2.26998 c -1.82237,-1.4002 -2.99893,-2.86031 -2.61456,-3.24468 0.38437,-0.38437 2.4754,0.75302 4.64675,2.52753 4.64548,3.79647 2.81589,4.44212 -2.03219,0.71715 z m -148.35325,-6.32209 c -2.75,-1.88847 -5,-3.99325 -5,-4.67731 0,-1.40317 6.66372,3.05451 9.28168,6.20895 2.29173,2.76137 1.61981,2.52101 -4.28168,-1.53164 z m 98.66667,1.24958 c -4.05403,-2.51351 -5.10623,-5.18662 -1.22368,-3.10874 2.25381,1.20621 6.522,5.49866 5.38693,5.41756 -0.27312,-0.0195 -2.14659,-1.05848 -4.16325,-2.30882 z m 49.81111,-0.40006 c -1.75389,-1.46061 -2.87312,-2.97142 -2.48718,-3.35735 0.38594,-0.38594 2.42094,0.8101 4.52222,2.65787 4.49379,3.95163 2.63663,4.58997 -2.03504,0.69948 z m -230.14445,-1.99941 c -2.2,-1.86846 -2.8,-2.80944 -1.33333,-2.09108 3.9472,1.93332 8.19973,5.41135 6.66667,5.45249 -0.73334,0.0197 -3.13334,-1.49295 -5.33334,-3.36141 z"
     id="path817"
     inkscape:connector-curvature="0"
     sodipodi:nodetypes="cccccccccccccccccccsscccscccccccsccsccsccsscssssssccccssccccssccssccsscccccsccccccsscscccsscsccccccccsscscsscccsscssccccccccccsccccscsccscccsccccccccscccscccscccccccsssssccccccccccscccscccccccsccccccccccccccccccccscsccscccccccsscccccccscssscscscccccccccccsscsccccccccccccccscccccccsccccccsscccccccscscsccsscccsccsccccccccsccccscsccscccccssscccccsscccccsscccccsssccccccccccccssccsssccccccsssccssccccccscccsscssccscccscscssscsssccssccccccsssccccccsscsscssscscsscscccccccccccccccsscsssssssscssccccsccssssssscsscscccssccssssssscccccccssccssscccscccccsccsscsscccccscsscccccccccsssssccccccssccccccsccsscsscssscccscccccccccscscsscsccccssscccccsscscscccccscsscsccccccccccsccccscsssssssssscsccccscsssccs"
     inkscape:export-xdpi="96"
     inkscape:export-ydpi="96" />
  <flowRoot
     xml:space="preserve"
     id="flowRoot823"
     style="font-style:normal;font-weight:normal;font-size:10.66666698px;line-height:1.25;font-family:sans-serif;text-align:center;letter-spacing:78.30007935px;word-spacing:0px;text-anchor:middle;fill:#000000;fill-opacity:1;stroke:none"
     transform="matrix(1,0,0,1.352192,-238.0791,-74.57026)"><flowRegion
       id="flowRegion825"
       style="letter-spacing:78.30007935px"><rect
         id="rect827"
         width="230.3277"
         height="55.367233"
         x="-260.22601"
         y="153.92091"
         style="letter-spacing:78.30007935px" /></flowRegion><flowPara
       id="flowPara829"
       style="font-size:29.33333397px;letter-spacing:15.07999992px"><flowSpan
         style="font-style:normal;font-variant:normal;font-weight:normal;font-stretch:normal;font-size:29.33283615px;font-family:Laksaman;-inkscape-font-specification:'Laksaman, Normal';font-variant-ligatures:normal;font-variant-caps:normal;font-variant-numeric:normal;font-feature-settings:normal;text-align:center;letter-spacing:10.07999992px;writing-mode:lr-tb;text-anchor:middle"
         id="flowSpan1585" /></flowPara></flowRoot>  <g
     id="g1657"
     style="opacity:1"
     inkscape:export-xdpi="96"
     inkscape:export-ydpi="96">
    <rect
       inkscape:export-ydpi="96"
       inkscape:export-xdpi="96"
       ry="9.48493"
       y="174.96045"
       x="119.59322"
       height="45.401138"
       width="251.36723"
       id="rect1597"
       style="opacity:0.98999999;fill:#ececec;fill-opacity:1;fill-rule:evenodd;stroke:none;stroke-width:1.88976383;stroke-linecap:square;stroke-linejoin:miter;stroke-miterlimit:4;stroke-dasharray:none;stroke-dashoffset:0;stroke-opacity:1;paint-order:normal" />
    <flowRoot
       inkscape:export-ydpi="96"
       inkscape:export-xdpi="96"
       transform="translate(520.45199,63.118646)"
       style="font-style:normal;font-variant:normal;font-weight:normal;font-stretch:normal;font-size:34.10933304px;line-height:1.25;font-family:Laksaman;-inkscape-font-specification:'Laksaman, Normal';font-variant-ligatures:normal;font-variant-caps:normal;font-variant-numeric:normal;font-feature-settings:normal;text-align:center;letter-spacing:9.56999969px;word-spacing:0px;writing-mode:lr-tb;text-anchor:middle;fill:#000000;fill-opacity:1;stroke:none"
       id="flowRoot1589"
       xml:space="preserve"><flowRegion
         id="flowRegion1591"
         style=""><rect
           y="115.16385"
           x="-407.50284"
           height="64.22599"
           width="265.76273"
           id="rect1593"
           style="" /></flowRegion><flowPara
         id="flowPara1595">FONSECA</flowPara></flowRoot>  </g>
</svg>
